<svg id="add-project" xmlns="http://www.w3.org/2000/svg" width="39.602" height="39.602" viewBox="0 0 39.602 39.602">
  <path id="Path_66" data-name="Path 66" d="M19.8,0A19.8,19.8,0,1,0,39.6,19.8,19.823,19.823,0,0,0,19.8,0Zm0,0" fill="#ff4141"/>
  <path id="Path_67" data-name="Path 67" d="M141.644,134.631h-7.013v7.013a1.65,1.65,0,1,1-3.3,0v-7.013h-7.013a1.65,1.65,0,1,1,0-3.3h7.013v-7.013a1.65,1.65,0,1,1,3.3,0v7.013h7.013a1.65,1.65,0,1,1,0,3.3Zm0,0" transform="translate(-113.18 -113.18)" fill="#fafafa"/>
</svg>
