<svg xmlns="http://www.w3.org/2000/svg" width="19.593" height="13.776" viewBox="0 0 19.593 13.776">
  <g id="menu" transform="translate(0 -76)">
    <g id="Group_24" data-name="Group 24" transform="translate(0 82.123)">
      <g id="Group_23" data-name="Group 23">
        <path id="Path_59" data-name="Path 59" d="M18.827,236H.765a.765.765,0,0,0,0,1.531H18.827a.765.765,0,0,0,0-1.531Z" transform="translate(0 -236)" fill="#1d1d1d"/>
      </g>
    </g>
    <g id="Group_26" data-name="Group 26" transform="translate(0 76)">
      <g id="Group_25" data-name="Group 25" transform="translate(0 0)">
        <path id="Path_60" data-name="Path 60" d="M18.827,76H.765a.765.765,0,1,0,0,1.531H18.827a.765.765,0,1,0,0-1.531Z" transform="translate(0 -76)" fill="#1d1d1d"/>
      </g>
    </g>
    <g id="Group_28" data-name="Group 28" transform="translate(0 88.246)">
      <g id="Group_27" data-name="Group 27">
        <path id="Path_61" data-name="Path 61" d="M18.827,396H.765a.765.765,0,0,0,0,1.531H18.827a.765.765,0,0,0,0-1.531Z" transform="translate(0 -396)" fill="#1d1d1d"/>
      </g>
    </g>
  </g>
</svg>
