<svg xmlns="http://www.w3.org/2000/svg" xmlns:xlink="http://www.w3.org/1999/xlink" width="408.847" height="245.725" viewBox="0 0 408.847 245.725">
  <defs>
    <linearGradient id="linear-gradient" x1="0.5" y1="1" x2="0.5" gradientUnits="objectBoundingBox">
      <stop offset="0.21" stop-color="#fff" stop-opacity="0"/>
      <stop offset="1" stop-color="#fff" stop-opacity="0.2"/>
    </linearGradient>
  </defs>
  <g id="no-tasks-background" transform="translate(-50.323 -254.083)">
    <g id="Слой_1" data-name="Слой 1">
      <g id="Mobile">
        <path id="Path_22" data-name="Path 22" d="M158.09,496.44,56.15,437.59c-8.63-5-7.55-13.69,2.42-19.45L304.81,276c10-5.76,25.05-6.38,33.68-1.4l101.94,58.85c8.63,5,7.55,13.7-2.42,19.45L191.77,495.05C181.8,500.8,166.72,501.43,158.09,496.44Z" fill="#d6d8e5" opacity="0.4"/>
        <path id="Path_23" data-name="Path 23" d="M171,488.7,69.07,429.85c-8.64-5-7.55-13.7,2.42-19.45L317.72,268.23c10-5.75,25-6.38,33.69-1.39l101.93,58.85c8.63,5,7.55,13.69-2.42,19.45L204.69,487.3C194.72,493.06,179.64,493.68,171,488.7Z" fill="#b1b4c4"/>
        <path id="Path_24" data-name="Path 24" d="M63.24,421.27v-9.38l11.01,4.15Z" fill="#b1b4c4"/>
        <path id="Path_25" data-name="Path 25" d="M459.17,333.81v-9.02l-8.75,5.64Z" fill="#b1b4c4"/>
        <path id="Path_26" data-name="Path 26" d="M171,480.75,69.07,421.9c-8.64-5-7.55-13.69,2.42-19.45L317.72,260.29c10-5.76,25-6.38,33.69-1.4l101.93,58.85c8.63,5,7.55,13.7-2.42,19.45L204.69,479.36C194.72,485.11,179.64,485.74,171,480.75Z" fill="#616e84"/>
        <ellipse id="Ellipse_6" data-name="Ellipse 6" cx="1.09" cy="1.89" rx="1.09" ry="1.89" transform="translate(78.536 431.235) rotate(-30)" fill="#757b89"/>
        <ellipse id="Ellipse_7" data-name="Ellipse 7" cx="1.09" cy="1.89" rx="1.09" ry="1.89" transform="translate(83.443 434.071) rotate(-30)" fill="#757b89"/>
        <ellipse id="Ellipse_8" data-name="Ellipse 8" cx="1.09" cy="1.89" rx="1.09" ry="1.89" transform="translate(88.35 436.897) rotate(-30)" fill="#757b89"/>
        <ellipse id="Ellipse_9" data-name="Ellipse 9" cx="1.09" cy="1.89" rx="1.09" ry="1.89" transform="translate(93.254 439.737) rotate(-30)" fill="#757b89"/>
        <ellipse id="Ellipse_10" data-name="Ellipse 10" cx="1.09" cy="1.89" rx="1.09" ry="1.89" transform="translate(135.39 464.053) rotate(-30)" fill="#757b89"/>
        <ellipse id="Ellipse_11" data-name="Ellipse 11" cx="1.09" cy="1.89" rx="1.09" ry="1.89" transform="translate(140.288 466.894) rotate(-30)" fill="#757b89"/>
        <ellipse id="Ellipse_12" data-name="Ellipse 12" cx="1.09" cy="1.89" rx="1.09" ry="1.89" transform="translate(145.195 469.72) rotate(-30)" fill="#757b89"/>
        <ellipse id="Ellipse_13" data-name="Ellipse 13" cx="1.09" cy="1.89" rx="1.09" ry="1.89" transform="translate(150.108 472.555) rotate(-30)" fill="#757b89"/>
        <path id="Path_27" data-name="Path 27" d="M123,458.93l-13.47-7.79a3.67,3.67,0,0,1-1.55-2.95h0c0-1.14.69-1.66,1.55-1.17L123,454.81a3.67,3.67,0,0,1,1.55,2.95h0C124.5,458.9,123.81,459.42,123,458.93Z" fill="#757b89"/>
        <path id="Path_28" data-name="Path 28" d="M428.32,356.16l-12.54,7.24c-.79.45-1.44,0-1.44-1.09h0a3.46,3.46,0,0,1,1.44-2.75l12.54-7.23c.79-.46,1.43,0,1.43,1.08h0A3.45,3.45,0,0,1,428.32,356.16Z" fill="#757b89"/>
        <path id="Path_29" data-name="Path 29" d="M409.12,367.24l-12.54,7.24c-.79.46-1.44,0-1.44-1.09h0a3.46,3.46,0,0,1,1.44-2.74l12.54-7.24c.79-.46,1.43,0,1.43,1.09h0A3.42,3.42,0,0,1,409.12,367.24Z" fill="#757b89"/>
        <path id="Path_30" data-name="Path 30" d="M171,479.31,69.07,420.46c-8.64-5-7.55-13.69,2.42-19.45L317.72,258.85c10-5.76,25-6.39,33.69-1.4L453.34,316.3c8.63,5,7.55,13.69-2.42,19.45L204.69,477.91C194.72,483.67,179.64,484.29,171,479.31Z" fill="#20232d"/>
        <path id="Path_31" data-name="Path 31" d="M442.4,318.65l-39.8-23-.09.06c-4.71,2.71-12.33,2.71-17,0s-4.7-7.12,0-9.83l.1-.06-39.8-23c-6-3.49-15.84-3.49-21.89,0L84.08,401.32c-6,3.49-6,9.15,0,12.64l96.61,55.78c6.05,3.49,15.85,3.49,21.89,0L442.4,331.28C448.44,327.79,448.44,322.14,442.4,318.65Z" fill="#fff"/>
        <path id="Path_32" data-name="Path 32" d="M442.4,331.28,202.58,469.74c-5.46,3.15-14,3.46-20.06.9a16.2,16.2,0,0,1-1.82-.9L84.08,414a10.22,10.22,0,0,1-3.39-3c-2.28-3.23-1.15-7.07,3.39-9.69L323.89,262.86c6.05-3.48,15.84-3.48,21.89,0l39.8,23h-.1c-4.7,2.71-4.7,7.11,0,9.83s12.33,2.71,17,0l.1-.06,39.8,23C448.44,322.14,448.44,327.79,442.4,331.28Z" opacity="0.5" fill="url(#linear-gradient)"/>
        <ellipse id="Ellipse_14" data-name="Ellipse 14" cx="4.57" cy="2.64" rx="4.57" ry="2.64" transform="translate(386.81 289.68)" fill="#2b303f"/>
        <path id="Path_33" data-name="Path 33" d="M390,293.1a.83.83,0,0,1,0-1.56,3,3,0,0,1,2.71,0,.82.82,0,0,1,0,1.56A3,3,0,0,1,390,293.1Z" fill="#fff" opacity="0.1"/>
      </g>
      <path id="Path_34" data-name="Path 34" d="M407.76,311.35l-1.73-1,2.89-1.67,1.73,1Z" fill="#e9eaf2"/>
      <path id="Path_35" data-name="Path 35" d="M410.07,312.68l-1.73-1,4.04-2.33,1.73,1Z" fill="#e9eaf2"/>
      <path id="Path_36" data-name="Path 36" d="M412.38,314.01l-1.73-1,5.77-3.33,1.73,1Z" fill="#e9eaf2"/>
      <path id="Path_37" data-name="Path 37" d="M414.69,315.35l-1.73-1,8.08-4.67,1.73,1Z" fill="#e9eaf2"/>
      <path id="Path_38" data-name="Path 38" d="M422.19,319.68l-2.69-1.56,5.39-3.11,2.69,1.56Z" fill="#e9eaf2"/>
      <path id="Path_39" data-name="Path 39" d="M425.79,321.75l-2.7-1.55,5.39-3.11,2.69,1.55Z" fill="#e9eaf2"/>
      <path id="Path_40" data-name="Path 40" d="M429.38,323.82l-2.7-1.55,5.39-3.11,2.69,1.55Z" fill="#e9eaf2"/>
      <path id="Path_41" data-name="Path 41" d="M316.65,293.28l-12.39-7.16c-1.72-1-1.5-2.71.48-3.85l11.43-6.6a7.39,7.39,0,0,1,6.68-.28l12.39,7.15c1.71,1,1.5,2.72-.48,3.86L323.33,293a7.43,7.43,0,0,1-6.68.28Z" fill="#e9eaf2"/>
      <path id="Path_42" data-name="Path 42" d="M400.93,341.94l-72.51-41.86c-1.71-1-1.49-2.72.48-3.86l11.44-6.6a7.4,7.4,0,0,1,6.67-.28l72.51,41.86c1.71,1,1.5,2.72-.48,3.86l-11.43,6.6A7.46,7.46,0,0,1,400.93,341.94Z" fill="#e9eaf2"/>
      <path id="Path_43" data-name="Path 43" d="M291.55,307.77l-12.39-7.16c-1.71-1-1.5-2.71.48-3.85l11.43-6.6a7.39,7.39,0,0,1,6.68-.28L310.14,297c1.71,1,1.5,2.72-.48,3.86l-11.43,6.6A7.43,7.43,0,0,1,291.55,307.77Z" fill="#e9eaf2"/>
      <path id="Path_44" data-name="Path 44" d="M375.83,356.43l-72.5-41.86c-1.71-1-1.5-2.72.48-3.86l11.43-6.6a7.43,7.43,0,0,1,6.68-.28l72.5,41.86c1.71,1,1.5,2.72-.48,3.86l-11.43,6.6a7.46,7.46,0,0,1-6.68.28Z" fill="#e9eaf2"/>
      <g id="Group_18" data-name="Group 18" opacity="0.6">
        <path id="Path_45" data-name="Path 45" d="M266.46,322.26l-12.4-7.16c-1.71-1-1.5-2.71.48-3.85l11.44-6.6a7.37,7.37,0,0,1,6.67-.28l12.4,7.15c1.71,1,1.49,2.72-.48,3.86L273.13,322A7.4,7.4,0,0,1,266.46,322.26Z" fill="#e9eaf2"/>
        <path id="Path_46" data-name="Path 46" d="M350.74,370.92l-72.51-41.86c-1.71-1-1.5-2.72.48-3.86l11.43-6.6a7.43,7.43,0,0,1,6.68-.28l72.51,41.86c1.71,1,1.49,2.72-.48,3.86l-11.44,6.6a7.44,7.44,0,0,1-6.67.28Z" fill="#e9eaf2"/>
      </g>
      <path id="Path_47" data-name="Path 47" d="M241.36,336.75,229,329.59c-1.71-1-1.49-2.71.48-3.85l11.44-6.61a7.4,7.4,0,0,1,6.67-.27L260,326c1.71,1,1.5,2.72-.48,3.86L248,336.47A7.4,7.4,0,0,1,241.36,336.75Z" fill="#e9eaf2"/>
      <path id="Path_48" data-name="Path 48" d="M325.64,385.41l-72.51-41.86c-1.71-1-1.49-2.72.48-3.86l11.44-6.6a7.4,7.4,0,0,1,6.67-.28l72.51,41.86c1.71,1,1.49,2.72-.48,3.86l-11.44,6.6a7.44,7.44,0,0,1-6.67.28Z" fill="#e9eaf2"/>
      <path id="Path_49" data-name="Path 49" d="M216.26,351.24l-12.39-7.16c-1.71-1-1.5-2.71.48-3.85l11.43-6.61a7.42,7.42,0,0,1,6.68-.27l12.39,7.15c1.71,1,1.5,2.72-.48,3.86L222.94,351a7.43,7.43,0,0,1-6.68.24Z" fill="#e9eaf2"/>
      <path id="Path_50" data-name="Path 50" d="M300.54,399.9,228,358c-1.71-1-1.49-2.72.48-3.86l11.44-6.6a7.42,7.42,0,0,1,6.68-.28l72.5,41.86c1.71,1,1.5,2.72-.48,3.86l-11.43,6.6a7.46,7.46,0,0,1-6.65.32Z" fill="#e9eaf2"/>
      <g id="Group_19" data-name="Group 19" opacity="0.6">
        <path id="Path_51" data-name="Path 51" d="M191.16,365.73l-12.39-7.16c-1.71-1-1.5-2.71.48-3.85l11.43-6.61a7.42,7.42,0,0,1,6.68-.27L209.75,355c1.72,1,1.5,2.72-.48,3.86l-11.43,6.6a7.43,7.43,0,0,1-6.68.27Z" fill="#e9eaf2"/>
        <path id="Path_52" data-name="Path 52" d="M275.44,414.39l-72.5-41.86c-1.71-1-1.5-2.72.48-3.86l11.43-6.6a7.43,7.43,0,0,1,6.68-.28L294,403.65c1.71,1,1.5,2.72-.48,3.86l-11.43,6.6A7.46,7.46,0,0,1,275.44,414.39Z" fill="#e9eaf2"/>
      </g>
      <path id="Path_53" data-name="Path 53" d="M166.07,380.22l-12.4-7.16c-1.71-1-1.49-2.71.48-3.85l11.44-6.61a7.4,7.4,0,0,1,6.67-.27l12.4,7.15c1.71,1,1.49,2.72-.48,3.86l-11.44,6.6a7.4,7.4,0,0,1-6.67.28Z" fill="#e9eaf2"/>
      <path id="Path_54" data-name="Path 54" d="M250.35,428.88,177.84,387c-1.71-1-1.5-2.72.48-3.86l11.43-6.6a7.43,7.43,0,0,1,6.68-.28l72.51,41.86c1.71,1,1.49,2.72-.48,3.86L257,428.6a7.44,7.44,0,0,1-6.65.28Z" fill="#e9eaf2"/>
      <g id="Group_20" data-name="Group 20" opacity="0.6">
        <path id="Path_55" data-name="Path 55" d="M141,394.71l-12.4-7.16c-1.71-1-1.49-2.71.48-3.85l11.44-6.61a7.42,7.42,0,0,1,6.68-.27L159.56,384c1.71,1,1.5,2.72-.48,3.86l-11.44,6.6a7.4,7.4,0,0,1-6.64.25Z" fill="#e9eaf2"/>
        <path id="Path_56" data-name="Path 56" d="M225.25,443.37l-72.51-41.86c-1.71-1-1.49-2.72.48-3.86l11.44-6.6a7.4,7.4,0,0,1,6.67-.28l72.51,41.86c1.71,1,1.5,2.72-.48,3.86l-11.44,6.6a7.44,7.44,0,0,1-6.67.28Z" fill="#e9eaf2"/>
      </g>
      <g id="Group_21" data-name="Group 21" opacity="0.6">
        <path id="Path_57" data-name="Path 57" d="M115.87,409.2,103.48,402c-1.71-1-1.5-2.71.48-3.85l11.43-6.61a7.42,7.42,0,0,1,6.68-.27l12.39,7.15c1.71,1,1.5,2.72-.48,3.86l-11.43,6.6a7.43,7.43,0,0,1-6.68.32Z" fill="#e9eaf2"/>
        <path id="Path_58" data-name="Path 58" d="M200.15,457.86,127.65,416c-1.72-1-1.5-2.71.47-3.85l11.44-6.6a7.42,7.42,0,0,1,6.68-.28l72.5,41.86c1.71,1,1.5,2.72-.48,3.86l-11.43,6.6A7.46,7.46,0,0,1,200.15,457.86Z" fill="#e9eaf2"/>
      </g>
    </g>
  </g>
</svg>
